<?xml version="1.0" standalone="no"?><!DOCTYPE svg PUBLIC "-//W3C//DTD SVG 1.1//EN" "http://www.w3.org/Graphics/SVG/1.1/DTD/svg11.dtd"><svg t="1595380873936" class="icon" viewBox="0 0 1072 1024" version="1.1" xmlns="http://www.w3.org/2000/svg" p-id="3057" xmlns:xlink="http://www.w3.org/1999/xlink" width="209.375" height="200"><defs><style type="text/css"></style></defs><path d="M744.789333 242.834286a48.761905 48.761905 0 0 1-56.027428 12.04419A376.393143 376.393143 0 0 0 536.380952 223.183238c-189.635048 0-341.333333 136.289524-341.333333 301.592381 0 73.435429 29.842286 142.921143 83.529143 197.583238a48.761905 48.761905 0 0 1-69.534476 68.364191C137.849905 718.214095 97.52381 624.444952 97.52381 524.775619c0-221.671619 197.583238-399.11619 438.857142-399.11619 55.832381 0 110.250667 9.508571 161.060572 27.745523a243.95581 243.95581 0 0 1 277.942857-23.795809 48.761905 48.761905 0 0 1 17.895619 66.608762l-75.580952 130.82819c19.21219 30.573714 33.889524 63.390476 43.641904 97.621334H975.238095a97.52381 97.52381 0 0 1 97.52381 97.523809v97.52381a97.52381 97.52381 0 0 1-97.52381 97.523809h-54.272a399.262476 399.262476 0 0 1-43.251809 58.514286V926.47619a97.52381 97.52381 0 0 1-97.52381 97.52381h-97.523809a97.52381 97.52381 0 0 1-97.52381-97.52381v-5.022476a487.424 487.424 0 0 1-97.523809 0V926.47619a97.52381 97.52381 0 0 1-97.52381 97.52381H292.571429a97.52381 97.52381 0 0 1-97.52381-97.52381 48.761905 48.761905 0 0 1 97.52381 0h97.523809v-62.415238a48.761905 48.761905 0 0 1 59.733333-47.494095c27.989333 6.485333 57.051429 9.801143 86.552381 9.801143 29.549714 0 58.514286-3.31581 86.552381-9.752381A48.761905 48.761905 0 0 1 682.666667 864.060952V926.47619h97.523809v-169.935238a48.761905 48.761905 0 0 1 13.994667-34.182095c22.332952-22.77181 40.71619-48.274286 54.467047-75.727238a48.761905 48.761905 0 0 1 43.593143-26.916571H975.238095v-97.52381h-52.906666a48.761905 48.761905 0 0 1-48.128-40.862476 279.552 279.552 0 0 0-53.052953-122.782476 48.761905 48.761905 0 0 1-3.218286-53.638096l62.317715-107.958857a146.334476 146.334476 0 0 0-135.460572 45.933715z" fill="#313645" p-id="3058"></path><path d="M631.612952 438.857143a48.761905 48.761905 0 0 0 0-97.52381H487.521524a97.52381 97.52381 0 0 0-97.52381 96.012191l-0.731428 48.761905a97.52381 97.52381 0 0 0 96.01219 98.986666l1.462857 0.048762h96.889905l0.731429 48.761905H438.857143a48.761905 48.761905 0 0 0 0 97.523809h147.065905a97.52381 97.52381 0 0 0 95.963428-99.035428l-0.78019-48.761905a97.52381 97.52381 0 0 0-97.52381-96.01219H486.838857l0.731429-48.761905h144.091428z" fill="#313645" p-id="3059"></path><path d="M585.142857 730.989714a48.761905 48.761905 0 0 1-97.523809 0V682.666667a48.761905 48.761905 0 0 1 97.523809 0v48.323047zM585.142857 390.095238a48.761905 48.761905 0 0 1-97.523809 0V341.333333a48.761905 48.761905 0 0 1 97.523809 0v48.761905zM574.025143 157.842286l-95.378286 20.48A97.52381 97.52381 0 1 0 299.885714 249.368381L216.502857 299.885714a195.047619 195.047619 0 1 1 357.571048-142.043428zM0.536381 490.544762a48.761905 48.761905 0 1 1 97.328762-6.826667c0.048762 0.975238 1.072762 5.558857 3.023238 9.264762 1.024 1.950476 1.462857 2.29181 1.706667 2.438095 3.608381 1.26781 11.897905 0.682667 26.721523-5.022476a48.761905 48.761905 0 0 1 35.05981 90.989714c-68.754286 26.477714-123.172571 7.070476-149.601524-42.617904a121.222095 121.222095 0 0 1-14.238476-48.274286z" fill="#313645" p-id="3060"></path></svg>