<?xml version="1.0" standalone="no"?><!DOCTYPE svg PUBLIC "-//W3C//DTD SVG 1.1//EN" "http://www.w3.org/Graphics/SVG/1.1/DTD/svg11.dtd"><svg t="1595381107673" class="icon" viewBox="0 0 1072 1024" version="1.1" xmlns="http://www.w3.org/2000/svg" p-id="3914" xmlns:xlink="http://www.w3.org/1999/xlink" width="209.375" height="200"><defs><style type="text/css"></style></defs><path d="M926.47619 390.095238a48.761905 48.761905 0 0 1 97.52381 0v292.571429a146.285714 146.285714 0 0 1-146.285714 146.285714H195.047619a146.285714 146.285714 0 0 1-146.285714-146.285714V195.047619a48.761905 48.761905 0 1 1 97.523809 0v487.619048a48.761905 48.761905 0 0 0 48.761905 48.761904h682.666667a48.761905 48.761905 0 0 0 48.761904-48.761904V390.095238z" fill="#313645" p-id="3915"></path><path d="M492.78781 758.393905a48.761905 48.761905 0 0 1 87.186285 43.593143l-97.523809 195.047619a48.761905 48.761905 0 0 1-87.186286-43.593143l97.52381-195.047619z" fill="#313645" p-id="3916"></path><path d="M492.78781 801.987048a48.761905 48.761905 0 0 1 87.186285-43.593143l97.52381 195.047619a48.761905 48.761905 0 0 1-87.186286 43.593143l-97.523809-195.047619zM438.857143 439.198476a48.761905 48.761905 0 1 1 0-97.523809h195.047619a48.761905 48.761905 0 0 1 0 97.523809H438.857143zM341.333333 633.904762a48.761905 48.761905 0 0 1 0-97.52381h390.095238a48.761905 48.761905 0 0 1 0 97.52381H341.333333zM975.238095 146.285714V97.52381H97.52381v48.761904h877.714285zM97.52381 0h877.714285a97.52381 97.52381 0 0 1 97.52381 97.52381v97.523809a48.761905 48.761905 0 0 1-48.761905 48.761905H48.761905a48.761905 48.761905 0 0 1-48.761905-48.761905V97.52381a97.52381 97.52381 0 0 1 97.52381-97.52381z" fill="#313645" p-id="3917"></path></svg>